<svg width="25" height="24" viewBox="0 0 25 24" fill="none" xmlns="http://www.w3.org/2000/svg">
<path d="M7.5 11.5C5.01472 11.5 3 9.48528 3 7C3 4.51472 5.01472 2.5 7.5 2.5C9.98528 2.5 12 4.51472 12 7C12 9.48528 9.98528 11.5 7.5 11.5ZM7.5 21.5C5.01472 21.5 3 19.4853 3 17C3 14.5147 5.01472 12.5 7.5 12.5C9.98528 12.5 12 14.5147 12 17C12 19.4853 9.98528 21.5 7.5 21.5ZM17.5 11.5C15.0147 11.5 13 9.48528 13 7C13 4.51472 15.0147 2.5 17.5 2.5C19.9853 2.5 22 4.51472 22 7C22 9.48528 19.9853 11.5 17.5 11.5ZM17.5 21.5C15.0147 21.5 13 19.4853 13 17C13 14.5147 15.0147 12.5 17.5 12.5C19.9853 12.5 22 14.5147 22 17C22 19.4853 19.9853 21.5 17.5 21.5Z" fill="#0D99FF"/>
</svg>
