<svg width="25" height="24" viewBox="0 0 25 24" fill="none" xmlns="http://www.w3.org/2000/svg">
<path d="M22.2099 7.28994C22.117 7.19621 22.0064 7.12182 21.8845 7.07105C21.7627 7.02028 21.632 6.99414 21.4999 6.99414C21.3679 6.99414 21.2372 7.02028 21.1154 7.07105C20.9935 7.12182 20.8829 7.19621 20.7899 7.28994L14.4999 13.5899L10.2099 9.28994C10.117 9.19621 10.0064 9.12182 9.88452 9.07105C9.76266 9.02028 9.63195 8.99414 9.49994 8.99414C9.36793 8.99414 9.23722 9.02028 9.11536 9.07105C8.9935 9.12182 8.8829 9.19621 8.78994 9.28994L2.78994 15.2899C2.69621 15.3829 2.62182 15.4935 2.57105 15.6154C2.52028 15.7372 2.49414 15.8679 2.49414 15.9999C2.49414 16.132 2.52028 16.2627 2.57105 16.3845C2.62182 16.5064 2.69621 16.617 2.78994 16.7099C2.8829 16.8037 2.9935 16.8781 3.11536 16.9288C3.23722 16.9796 3.36793 17.0057 3.49994 17.0057C3.63195 17.0057 3.76266 16.9796 3.88452 16.9288C4.00637 16.8781 4.11698 16.8037 4.20994 16.7099L9.49994 11.4099L13.7899 15.7099C13.8829 15.8037 13.9935 15.8781 14.1154 15.9288C14.2372 15.9796 14.3679 16.0057 14.4999 16.0057C14.632 16.0057 14.7627 15.9796 14.8845 15.9288C15.0064 15.8781 15.117 15.8037 15.2099 15.7099L22.2099 8.70994C22.3037 8.61698 22.3781 8.50638 22.4288 8.38452C22.4796 8.26266 22.5057 8.13195 22.5057 7.99994C22.5057 7.86793 22.4796 7.73722 22.4288 7.61536C22.3781 7.4935 22.3037 7.3829 22.2099 7.28994Z" fill="#0D99FF"/>
</svg>
